<svg width="55" height="53" viewBox="0 0 55 53" fill="none" xmlns="http://www.w3.org/2000/svg">
<path d="M54.5753 35.6432C54.5535 35.6294 54.5313 35.6166 54.5084 35.6047C52.9814 34.7231 51.1581 34.5116 49.4698 35.0202V8.9504C49.47 8.5583 49.2207 8.20949 48.8496 8.08284L27.7791 0.898729C27.5875 0.831853 27.3789 0.831853 27.1873 0.898729L6.11685 8.08284C5.74571 8.20949 5.49642 8.5583 5.49664 8.9504V36.4245H0.916108C0.410187 36.4245 0 36.8346 0 37.3406V51.2352C0 51.7411 0.410187 52.1513 0.916108 52.1513H9.16108C9.667 52.1513 10.0772 51.7411 10.0772 51.2352V48.4868H42.6805C42.3244 49.3594 42.1412 50.2927 42.1409 51.2352C42.1409 51.7411 42.5511 52.1513 43.0571 52.1513C43.563 52.1513 43.9732 51.7411 43.9732 51.2352C43.9772 48.893 45.4634 46.81 47.677 46.0445C47.7729 46.0292 47.8658 45.9982 47.9518 45.9529C48.4453 45.8105 48.9562 45.7384 49.4698 45.7385C49.9757 45.7385 50.3859 45.3283 50.3859 44.8224C50.3859 44.3165 49.9757 43.9063 49.4698 43.9063C48.9145 43.9081 48.3613 43.9733 47.8208 44.1005C47.114 43.2829 46.724 42.2388 46.7215 41.158C46.7206 38.6283 48.7706 36.5766 51.3003 36.5757C52.105 36.5754 52.8955 36.7871 53.5923 37.1894C54.0193 37.4608 54.5855 37.3347 54.8569 36.9078C55.1283 36.4809 55.0022 35.9146 54.5753 35.6432ZM8.24497 50.3191H1.83222V47.5707H8.24497V50.3191ZM8.24497 45.7385H1.83222V42.9902H8.24497V45.7385ZM8.24497 41.158H1.83222V38.2567H8.24497V41.158ZM40.3087 46.6546H14.6577V44.8224H40.3087V46.6546ZM40.3087 42.9902H14.6577V41.158H40.3087V42.9902ZM40.3087 39.3258H14.6577V37.4935H40.3087V39.3258ZM40.3087 35.6613H14.6577V33.8291H40.3087V35.6613ZM40.3087 31.9969H14.6577V30.1647H40.3087V31.9969ZM40.3087 28.3325H14.6577V26.5003H40.3087V28.3325ZM47.6376 35.9032C44.7468 37.9097 44.0206 41.8748 46.0124 44.7757C45.1425 45.2445 44.3758 45.8835 43.7579 46.6546H42.1409V25.5842C42.1409 25.0782 41.7308 24.668 41.2248 24.668H13.7416C13.2357 24.668 12.8255 25.0782 12.8255 25.5842V46.6546H10.0772V37.3406C10.0772 36.8346 9.667 36.4245 9.16108 36.4245H7.32886V13.41L27.4832 6.39995L47.6376 13.41V35.9032ZM47.6376 11.4706L27.7846 4.56499C27.5895 4.49651 27.377 4.49651 27.1818 4.56499L7.32886 11.4706V9.60633L27.4832 2.73552L47.6376 9.60633V11.4706Z" fill="#212121"/>
</svg>
