<svg width="38" height="48" viewBox="0 0 38 48" fill="none" xmlns="http://www.w3.org/2000/svg">
<path d="M9.14233 24.3047H10.672V25.7367C10.672 25.8984 10.7362 26.0534 10.8504 26.1676C10.9647 26.2819 11.1197 26.3461 11.2813 26.3461C11.443 26.3461 11.598 26.2819 11.7122 26.1676C11.8265 26.0534 11.8907 25.8984 11.8907 25.7367V24.3047H13.3819C13.5435 24.3047 13.6985 24.2405 13.8128 24.1262C13.927 24.012 13.9912 23.857 13.9912 23.6953C13.9912 23.5337 13.927 23.3787 13.8128 23.2644C13.6985 23.1502 13.5435 23.086 13.3819 23.086H11.8907V21.6059C11.8907 21.4443 11.8265 21.2893 11.7122 21.175C11.598 21.0607 11.443 20.9965 11.2813 20.9965C11.1197 20.9965 10.9647 21.0607 10.8504 21.175C10.7362 21.2893 10.672 21.4443 10.672 21.6059V23.086H9.14233C8.98072 23.086 8.82572 23.1502 8.71144 23.2644C8.59716 23.3787 8.53296 23.5337 8.53296 23.6953C8.53296 23.857 8.59716 24.012 8.71144 24.1262C8.82572 24.2405 8.98072 24.3047 9.14233 24.3047Z" fill="#212121" stroke="#212121" stroke-width="0.5"/>
<path d="M5.62207 23.6711C5.62209 24.7865 5.95287 25.8769 6.57259 26.8044C7.1923 27.7318 8.07311 28.4546 9.10364 28.8815C10.1342 29.3083 11.2681 29.42 12.3621 29.2024C13.4561 28.9848 14.461 28.4477 15.2498 27.6589C16.0385 26.8702 16.5756 25.8653 16.7932 24.7713C17.0108 23.6773 16.8992 22.5433 16.4723 21.5128C16.0455 20.4823 15.3226 19.6015 14.3952 18.9818C13.4677 18.3621 12.3774 18.0313 11.2619 18.0312C9.76667 18.0329 8.33313 18.6277 7.27582 19.685C6.21851 20.7423 5.62376 22.1759 5.62207 23.6711ZM11.2619 19.25C12.1364 19.25 12.9911 19.5093 13.7182 19.9951C14.4452 20.4809 15.0119 21.1714 15.3465 21.9792C15.6811 22.7871 15.7687 23.676 15.5981 24.5336C15.4275 25.3912 15.0064 26.179 14.3881 26.7973C13.7698 27.4156 12.9821 27.8367 12.1245 28.0073C11.2668 28.1779 10.3779 28.0903 9.57005 27.7557C8.7622 27.4211 8.07171 26.8544 7.58591 26.1274C7.10011 25.4003 6.84082 24.5455 6.84082 23.6711C6.84214 22.499 7.30836 21.3752 8.13719 20.5464C8.96603 19.7175 10.0898 19.2513 11.2619 19.25Z" fill="#212121" stroke="#212121" stroke-width="0.5"/>
<path d="M24.8483 25.4643C24.9596 25.5816 25.1128 25.6498 25.2744 25.654C25.436 25.6582 25.5926 25.5981 25.7098 25.4869L26.7379 24.5112L27.7661 25.4869C27.8237 25.5442 27.8922 25.5895 27.9675 25.62C28.0428 25.6505 28.1234 25.6656 28.2047 25.6644C28.2859 25.6633 28.3661 25.6459 28.4405 25.6133C28.515 25.5808 28.5821 25.5336 28.6381 25.4747C28.694 25.4158 28.7376 25.3463 28.7663 25.2702C28.795 25.1942 28.8082 25.1132 28.8051 25.032C28.802 24.9508 28.7827 24.8711 28.7484 24.7975C28.714 24.7238 28.6653 24.6578 28.605 24.6033L27.6232 23.6715L28.605 22.7397C28.6653 22.6852 28.714 22.6192 28.7484 22.5456C28.7827 22.4719 28.802 22.3922 28.8051 22.311C28.8082 22.2298 28.795 22.1488 28.7663 22.0728C28.7376 21.9968 28.694 21.9272 28.6381 21.8683C28.5821 21.8094 28.515 21.7622 28.4405 21.7297C28.3661 21.6971 28.2859 21.6797 28.2047 21.6786C28.1234 21.6774 28.0428 21.6926 27.9675 21.7231C27.8922 21.7535 27.8237 21.7988 27.7661 21.8561L26.7379 22.8318L25.7098 21.8561C25.6523 21.7986 25.5838 21.7531 25.5084 21.7225C25.4331 21.6918 25.3523 21.6766 25.271 21.6776C25.1896 21.6787 25.1093 21.696 25.0347 21.7286C24.9602 21.7612 24.8929 21.8084 24.8369 21.8674C24.7808 21.9264 24.7372 21.996 24.7085 22.0722C24.6799 22.1483 24.6667 22.2294 24.6699 22.3107C24.6731 22.3921 24.6925 22.4719 24.7271 22.5456C24.7616 22.6193 24.8105 22.6853 24.871 22.7397L25.8528 23.6715L24.871 24.6033C24.7539 24.7145 24.6857 24.8677 24.6815 25.0291C24.6772 25.1906 24.7372 25.3471 24.8483 25.4643Z" fill="#212121" stroke="#212121" stroke-width="0.5"/>
<path d="M26.7381 29.3109C27.8535 29.311 28.944 28.9802 29.8715 28.3605C30.799 27.7408 31.5219 26.86 31.9488 25.8295C32.3757 24.7989 32.4874 23.6649 32.2698 22.5709C32.0522 21.4768 31.515 20.4719 30.7263 19.6831C29.9375 18.8943 28.9326 18.3572 27.8386 18.1396C26.7445 17.9219 25.6105 18.0336 24.5799 18.4605C23.5494 18.8874 22.6686 19.6103 22.0488 20.5378C21.4291 21.4653 21.0984 22.5557 21.0984 23.6712C21.1001 25.1664 21.6948 26.5999 22.7521 27.6571C23.8094 28.7144 25.2428 29.3092 26.7381 29.3109ZM26.7381 19.25C27.6125 19.25 28.4673 19.5093 29.1944 19.995C29.9214 20.4808 30.4881 21.1713 30.8228 21.9791C31.1574 22.787 31.245 23.6759 31.0744 24.5336C30.9039 25.3912 30.4828 26.179 29.8645 26.7973C29.2462 27.4156 28.4585 27.8367 27.6008 28.0073C26.7432 28.1779 25.8543 28.0904 25.0464 27.7558C24.2385 27.4211 23.5481 26.8545 23.0622 26.1274C22.5764 25.4004 22.3171 24.5456 22.3171 23.6712C22.3185 22.499 22.7846 21.3753 23.6134 20.5465C24.4422 19.7177 25.5659 19.2514 26.7381 19.25Z" fill="#212121" stroke="#212121" stroke-width="0.5"/>
<path d="M13.133 34.9236C13.0187 34.8093 12.8638 34.7451 12.7022 34.7451C12.5406 34.7451 12.3856 34.8093 12.2714 34.9236L9.35063 37.8442C9.23634 37.9585 9.17213 38.1135 9.17212 38.2751C9.17211 38.4367 9.2363 38.5917 9.35058 38.706C9.46485 38.8203 9.61985 38.8845 9.78147 38.8845C9.94309 38.8845 10.0981 38.8203 10.2124 38.7061L13.133 35.7854C13.1896 35.7288 13.2345 35.6617 13.2651 35.5877C13.2958 35.5138 13.3115 35.4345 13.3115 35.3545C13.3115 35.2745 13.2958 35.1952 13.2651 35.1213C13.2345 35.0473 13.1896 34.9802 13.133 34.9236Z" fill="#212121"/>
<path d="M11.2619 31.1264C10.1465 31.1264 9.05611 31.4572 8.12865 32.0768C7.20118 32.6965 6.4783 33.5773 6.05142 34.6078C5.62454 35.6384 5.51283 36.7723 5.73041 37.8663C5.948 38.9603 6.4851 39.9653 7.27381 40.754C8.06253 41.5428 9.06742 42.0799 10.1614 42.2976C11.2554 42.5152 12.3894 42.4036 13.4199 41.9767C14.4505 41.5499 15.3313 40.8271 15.951 39.8996C16.5708 38.9722 16.9016 37.8818 16.9016 36.7664C16.8999 35.2712 16.3052 33.8376 15.248 32.7803C14.1907 31.723 12.7572 31.1282 11.2619 31.1264ZM11.2619 41.1872C10.3875 41.1872 9.53276 40.928 8.80571 40.4422C8.07866 39.9564 7.51199 39.2659 7.17736 38.4581C6.84274 37.6502 6.75518 36.7613 6.92577 35.9037C7.09636 35.0461 7.51744 34.2583 8.13574 33.64C8.75405 33.0217 9.54182 32.6007 10.3994 32.4301C11.257 32.2595 12.146 32.3471 12.9538 32.6818C13.7616 33.0164 14.4521 33.5831 14.9379 34.3102C15.4236 35.0372 15.6829 35.892 15.6829 36.7664C15.6815 37.9385 15.2152 39.0621 14.3864 39.8909C13.5577 40.7196 12.434 41.1858 11.2619 41.1872Z" fill="#212121" stroke="#212121" stroke-width="0.5"/>
<path d="M24.6182 37.4062H28.8577C29.0193 37.4062 29.1743 37.342 29.2886 37.2278C29.4029 37.1135 29.4671 36.9585 29.4671 36.7969C29.4671 36.6353 29.4029 36.4803 29.2886 36.366C29.1743 36.2517 29.0193 36.1875 28.8577 36.1875H24.6182C24.4565 36.1875 24.3016 36.2517 24.1873 36.366C24.073 36.4803 24.0088 36.6353 24.0088 36.7969C24.0088 36.9585 24.073 37.1135 24.1873 37.2278C24.3016 37.342 24.4565 37.4062 24.6182 37.4062Z" fill="#212121" stroke="#212121" stroke-width="0.5"/>
<path d="M26.7381 42.406C27.8535 42.406 28.9439 42.0752 29.8714 41.4555C30.7989 40.8358 31.5217 39.955 31.9486 38.9245C32.3755 37.8939 32.4872 36.7599 32.2696 35.6659C32.0519 34.5719 31.5148 33.567 30.726 32.7782C29.9373 31.9895 28.9324 31.4524 27.8383 31.2348C26.7443 31.0172 25.6103 31.1289 24.5798 31.5558C23.5493 31.9827 22.6685 32.7056 22.0488 33.6331C21.4291 34.5605 21.0983 35.651 21.0984 36.7664C21.1002 38.2616 21.6949 39.695 22.7522 40.7523C23.8094 41.8095 25.2429 42.4042 26.7381 42.406ZM26.7381 32.3452C27.6124 32.3452 28.4672 32.6044 29.1942 33.0902C29.9213 33.576 30.488 34.2664 30.8226 35.0742C31.1572 35.8821 31.2448 36.771 31.0742 37.6286C30.9037 38.4862 30.4827 39.2739 29.8644 39.8922C29.2461 40.5105 28.4584 40.9316 27.6008 41.1022C26.7432 41.2729 25.8543 41.1853 25.0465 40.8508C24.2386 40.5162 23.5481 39.9496 23.0623 39.2225C22.5765 38.4955 22.3172 37.6408 22.3171 36.7664C22.3184 35.5943 22.7846 34.4705 23.6134 33.6417C24.4422 32.8128 25.5659 32.3466 26.7381 32.3452Z" fill="#212121" stroke="#212121" stroke-width="0.5"/>
<path d="M10.6831 36.2128C10.9153 35.9806 11.0598 35.6751 11.092 35.3482C11.1242 35.0214 11.0421 34.6936 10.8597 34.4205C10.6773 34.1474 10.4058 33.9461 10.0915 33.8507C9.77727 33.7554 9.43969 33.772 9.13628 33.8976C8.83288 34.0233 8.58244 34.2503 8.42763 34.5399C8.27282 34.8295 8.22322 35.1639 8.28728 35.486C8.35135 35.808 8.52511 36.098 8.77896 36.3063C9.03282 36.5146 9.35106 36.6285 9.67945 36.6285C9.86595 36.629 10.0507 36.5925 10.223 36.5211C10.3953 36.4498 10.5517 36.3449 10.6832 36.2127L10.6831 36.2128ZM9.53777 35.0672C9.55635 35.0483 9.57847 35.0333 9.60287 35.0231C9.62726 35.0128 9.65344 35.0075 9.6799 35.0074C9.70637 35.0073 9.73259 35.0124 9.75705 35.0225C9.78152 35.0326 9.80375 35.0474 9.82246 35.0661C9.84117 35.0849 9.85599 35.1071 9.86608 35.1316C9.87616 35.156 9.8813 35.1822 9.88121 35.2087C9.88111 35.2352 9.87578 35.2613 9.86553 35.2857C9.85527 35.3101 9.84028 35.3323 9.82144 35.3508C9.80286 35.3697 9.78073 35.3846 9.75633 35.3949C9.73193 35.4051 9.70575 35.4105 9.67929 35.4105C9.65283 35.4106 9.62661 35.4055 9.60215 35.3954C9.57768 35.3853 9.55546 35.3705 9.53676 35.3517C9.51805 35.333 9.50323 35.3108 9.49316 35.2863C9.48309 35.2619 9.47795 35.2356 9.47806 35.2092C9.47816 35.1827 9.4835 35.1565 9.49377 35.1321C9.50403 35.1078 9.51902 35.0856 9.53788 35.0671L9.53777 35.0672Z" fill="#212121"/>
<path d="M11.7468 37.2764C11.5483 37.4749 11.4131 37.7278 11.3583 38.0031C11.3036 38.2784 11.3317 38.5638 11.4391 38.8231C11.5465 39.0825 11.7284 39.3042 11.9619 39.4601C12.1953 39.6161 12.4697 39.6993 12.7504 39.6993C13.0311 39.6993 13.3055 39.6161 13.5389 39.4601C13.7723 39.3042 13.9543 39.0825 14.0617 38.8231C14.1691 38.5638 14.1972 38.2784 14.1425 38.0031C14.0877 37.7278 13.9525 37.4749 13.754 37.2764C13.4877 37.0106 13.1267 36.8613 12.7504 36.8613C12.3741 36.8613 12.0131 37.0106 11.7468 37.2764ZM12.8923 38.4219C12.8642 38.4499 12.8285 38.469 12.7896 38.4767C12.7507 38.4844 12.7104 38.4804 12.6738 38.4652C12.6372 38.45 12.6059 38.4243 12.5839 38.3914C12.5619 38.3584 12.5501 38.3196 12.5501 38.28C12.5501 38.2404 12.5619 38.2016 12.5839 38.1687C12.6059 38.1357 12.6372 38.11 12.6738 38.0948C12.7104 38.0796 12.7507 38.0756 12.7896 38.0834C12.8285 38.0911 12.8642 38.1101 12.8923 38.1381C12.911 38.1567 12.9259 38.1788 12.9361 38.2032C12.9462 38.2275 12.9515 38.2536 12.9514 38.28C12.9514 38.3064 12.9462 38.3325 12.936 38.3569C12.9258 38.3812 12.9109 38.4033 12.8922 38.4219H12.8923Z" fill="#212121"/>
<path d="M32.6094 1.14844H5.49219C4.25313 1.14844 3.06482 1.64065 2.18867 2.5168C1.31253 3.39294 0.820313 4.58125 0.820312 5.82031V42.1797C0.820313 43.4187 1.31253 44.6071 2.18867 45.4832C3.06482 46.3593 4.25313 46.8516 5.49219 46.8516H32.6094C33.8484 46.8516 35.0367 46.3593 35.9129 45.4832C36.789 44.6071 37.2812 43.4187 37.2812 42.1797V5.82031C37.2812 4.58125 36.789 3.39294 35.9129 2.5168C35.0367 1.64065 33.8484 1.14844 32.6094 1.14844ZM35.9609 14.6562H11.6875C11.5259 14.6562 11.3709 14.7205 11.2566 14.8347C11.1423 14.949 11.0781 15.104 11.0781 15.2656C11.0781 15.4272 11.1423 15.5822 11.2566 15.6965C11.3709 15.8108 11.5259 15.875 11.6875 15.875H35.9609V42.171C35.9644 42.6229 35.8787 43.0711 35.7087 43.4899C35.5387 43.9087 35.2877 44.2898 34.9701 44.6114C34.6525 44.933 34.2746 45.1888 33.8579 45.364C33.4413 45.5393 32.9942 45.6306 32.5422 45.6328H5.45776C5.00578 45.6306 4.55867 45.5393 4.14206 45.364C3.72545 45.1888 3.34752 44.933 3.02993 44.6114C2.71234 44.2898 2.46134 43.9087 2.29131 43.4899C2.12128 43.0711 2.03556 42.6229 2.03906 42.171V15.875H7.625C7.78662 15.875 7.94161 15.8108 8.05589 15.6965C8.17017 15.5822 8.23438 15.4272 8.23438 15.2656C8.23438 15.104 8.17017 14.949 8.05589 14.8347C7.94161 14.7205 7.78662 14.6562 7.625 14.6562H2.03906V5.82905C2.03556 5.37708 2.12128 4.92886 2.29131 4.51008C2.46134 4.0913 2.71234 3.71019 3.02993 3.3886C3.34752 3.067 3.72545 2.81123 4.14206 2.63596C4.55867 2.46069 5.00578 2.36935 5.45776 2.36719H32.5422C32.9942 2.36935 33.4413 2.46069 33.8579 2.63596C34.2746 2.81123 34.6525 3.067 34.9701 3.3886C35.2877 3.71019 35.5387 4.0913 35.7087 4.51008C35.8787 4.92886 35.9644 5.37708 35.9609 5.82905V14.6562Z" fill="#212121" stroke="#212121" stroke-width="0.5"/>
<path d="M31.7969 5.41406H6.10156C5.93995 5.41406 5.78495 5.47826 5.67067 5.59254C5.55639 5.70682 5.49219 5.86182 5.49219 6.02344V11.8125C5.49219 11.9741 5.55639 12.1291 5.67067 12.2434C5.78495 12.3577 5.93995 12.4219 6.10156 12.4219H31.7969C31.9585 12.4219 32.1135 12.3577 32.2278 12.2434C32.342 12.1291 32.4062 11.9741 32.4062 11.8125V6.02344C32.4062 5.86182 32.342 5.70682 32.2278 5.59254C32.1135 5.47826 31.9585 5.41406 31.7969 5.41406ZM31.2891 11.2031H6.71094V6.63281H31.2891V11.2031Z" fill="#212121" stroke="#212121" stroke-width="0.5"/>
</svg>
