<?xml version="1.0" encoding="UTF-8" standalone="no"?>
<svg
   width="18.902632"
   height="21.659008"
   viewBox="0 0 18.902632 21.659008"
   fill="none"
   version="1.1"
   id="svg8"
   sodipodi:docname="16b5aee38fc27318dbf1d88151f141d5.svg"
   xmlns:inkscape="http://www.inkscape.org/namespaces/inkscape"
   xmlns:sodipodi="http://sodipodi.sourceforge.net/DTD/sodipodi-0.dtd"
   xmlns="http://www.w3.org/2000/svg"
   xmlns:svg="http://www.w3.org/2000/svg">
  <defs
     id="defs12" />
  <sodipodi:namedview
     id="namedview10"
     pagecolor="#ffffff"
     bordercolor="#666666"
     borderopacity="1.0"
     inkscape:pageshadow="2"
     inkscape:pageopacity="0.0"
     inkscape:pagecheckerboard="0" />
  <path
     fill-rule="evenodd"
     clip-rule="evenodd"
     d="m 15.607353,3.2952168 v 0 c 3.4,3.39992 3.4,8.9122202 0,12.3122202 l -4.7054,4.7054 c -0.8012,0.8012 -2.1000999,0.8012 -2.9012999,0 l -4.70543,-4.7054 c -3.39992003,-3.4 -3.39992003,-8.9123002 0,-12.3122202 v 0 c 3.39993,-3.39991001 8.9122299,-3.39991001 12.3121299,0 z"
     stroke="#6f6b71"
     stroke-linecap="round"
     stroke-linejoin="round"
     id="path2" />
  <path
     fill-rule="evenodd"
     clip-rule="evenodd"
     d="m 15.607353,3.2952168 v 0 c 3.4,3.39992 3.4,8.9122202 0,12.3122202 l -4.7054,4.7054 c -0.8012,0.8012 -2.1000999,0.8012 -2.9012999,0 l -4.70543,-4.7054 c -3.39992003,-3.4 -3.39992003,-8.9123002 0,-12.3122202 v 0 c 3.39993,-3.39991001 8.9122299,-3.39991001 12.3121299,0 z"
     stroke="#6f6b71"
     stroke-width="1.5"
     stroke-linecap="round"
     stroke-linejoin="round"
     id="path4" />
  <circle
     cx="9.4516535"
     cy="9.4515371"
     stroke="#6f6b71"
     stroke-width="1.5"
     stroke-linecap="round"
     stroke-linejoin="round"
     id="ellipse6"
     r="2.98716" />
</svg>
