<svg width="18" height="19" viewBox="0 0 18 19" fill="none" xmlns="http://www.w3.org/2000/svg">
<path d="M13.2275 18.4258C14.7656 18.4258 15.8027 17.9863 16.752 16.958C16.8135 16.8877 16.8838 16.8086 16.9453 16.7383C17.4551 16.1582 17.71 15.5518 17.71 14.9893C17.71 14.3301 17.3672 13.7324 16.5762 13.1963L13.957 11.3682C13.1309 10.7969 12.1729 10.7529 11.4346 11.4912L10.7842 12.1416C10.5557 12.3701 10.3447 12.3877 10.0723 12.2031C9.59766 11.8867 8.70117 11.0957 8.08594 10.4805C7.46191 9.85645 6.8291 9.15333 6.48633 8.61719C6.30176 8.34473 6.31934 8.1338 6.54785 7.90528L7.19824 7.25489C7.93652 6.51661 7.89258 5.5586 7.32129 4.73243L5.45801 2.06934C4.93066 1.31348 4.30664 0.96192 3.64746 0.953131C3.08496 0.944342 2.4873 1.19922 1.90723 1.70899C1.83691 1.77051 1.7666 1.83204 1.70508 1.89356C0.65918 2.85157 0.202148 3.87989 0.202148 5.4795C0.202148 8.07227 1.70508 11.1309 4.63184 14.04C7.54102 16.9316 10.5645 18.4258 13.2275 18.4258ZM10.9512 8.47657C11.1621 8.47657 11.3379 8.40626 11.4873 8.25684L15.0293 4.71485L16.2334 3.39649L16.0928 5.67286V6.93848C16.0928 7.34278 16.4004 7.6504 16.8047 7.66797C17.2266 7.68555 17.5693 7.36036 17.5693 6.94727V1.99903C17.5693 1.41895 17.2617 1.11133 16.6816 1.11133H11.6982C11.2852 1.11133 10.96 1.45411 10.9775 1.87598C10.9951 2.28028 11.3027 2.5879 11.707 2.5879H13.0078L15.3018 2.43848L13.9658 3.64258L10.4238 7.19337C10.2656 7.36036 10.1865 7.54493 10.1865 7.76465C10.1865 8.16895 10.5117 8.47657 10.9512 8.47657ZM13.2188 16.958C10.9775 16.9932 8.19141 15.4023 5.74805 12.9766C3.28711 10.5508 1.65234 7.65919 1.6875 5.41797C1.70508 4.47755 2.03906 3.65137 2.70703 3.0713C2.76855 3.01856 2.83008 2.97462 2.8916 2.92188C3.1377 2.71094 3.40137 2.59669 3.64746 2.59669C3.90234 2.59669 4.13086 2.70215 4.30664 2.96583L5.95898 5.43555C6.16113 5.73438 6.16992 6.07715 5.8623 6.37598L5.15918 7.07032C4.49121 7.72071 4.55273 8.48536 4.97461 9.08301C5.44922 9.74219 6.33691 10.7529 7.08398 11.4912C7.88379 12.2822 8.97363 13.2578 9.60645 13.7148C10.2129 14.1367 10.9688 14.1982 11.6191 13.5303L12.3135 12.8272C12.6123 12.5195 12.9551 12.5283 13.2539 12.7305L15.6797 14.3477C15.9521 14.5234 16.0488 14.7432 16.0488 14.9981C16.0488 15.2441 15.9434 15.5078 15.7236 15.7627C15.6709 15.8242 15.627 15.877 15.5742 15.9473C14.9941 16.6152 14.168 16.9492 13.2188 16.958Z" fill="#6F6B71"/>
</svg>
