<svg width="20" height="20" viewBox="0 0 20 20" fill="none" xmlns="http://www.w3.org/2000/svg">
<path d="M10.2197 0.217407H10.2149C4.9409 0.217407 0.6521 4.50741 0.6521 9.78263C0.6521 11.875 1.32645 13.8144 2.47308 15.389L1.28101 18.9425L4.95764 17.7672C6.47014 18.7691 8.27438 19.3478 10.2197 19.3478C15.4937 19.3478 19.7825 15.0566 19.7825 9.78263C19.7825 4.5086 15.4937 0.217407 10.2197 0.217407ZM15.7855 13.7247C15.5547 14.3763 14.6388 14.9168 13.9083 15.0746C13.4085 15.181 12.7557 15.2659 10.5581 14.3548C7.7471 13.1902 5.93688 10.3338 5.7958 10.1485C5.66069 9.96317 4.65993 8.63599 4.65993 7.26339C4.65993 5.89078 5.35699 5.22241 5.63797 4.93545C5.86873 4.69991 6.25014 4.5923 6.61601 4.5923C6.73438 4.5923 6.8408 4.59828 6.93645 4.60306C7.21743 4.61502 7.35851 4.63176 7.54384 5.07534C7.7746 5.63132 8.33656 7.00393 8.40351 7.14502C8.47166 7.2861 8.53982 7.47741 8.44417 7.66273C8.35449 7.85404 8.27558 7.93893 8.13449 8.10154C7.9934 8.26415 7.85949 8.38849 7.7184 8.56306C7.58927 8.71491 7.4434 8.87752 7.60601 9.15849C7.76862 9.43349 8.33058 10.3506 9.15797 11.0871C10.2257 12.0376 11.0913 12.3413 11.401 12.4705C11.6318 12.5661 11.9068 12.5434 12.0754 12.364C12.2894 12.1333 12.5536 11.7507 12.8226 11.374C13.0139 11.1038 13.2555 11.0703 13.5089 11.166C13.7672 11.2557 15.1338 11.9312 15.4148 12.0711C15.6958 12.2122 15.8811 12.2791 15.9493 12.3975C16.0162 12.5159 16.0162 13.0719 15.7855 13.7247Z" fill="white"/>
</svg>
