<?xml version="1.0" standalone="no"?>
<!DOCTYPE svg PUBLIC "-//W3C//DTD SVG 20010904//EN"
 "http://www.w3.org/TR/2001/REC-SVG-20010904/DTD/svg10.dtd">
<svg version="1.0" xmlns="http://www.w3.org/2000/svg"
 width="78.000000pt" height="89.000000pt" viewBox="0 0 78.000000 89.000000"
 preserveAspectRatio="xMidYMid meet">
<metadata>
Created by potrace 1.16, written by Peter Selinger 2001-2019
</metadata>
<g transform="translate(0.000000,89.000000) scale(0.100000,-0.100000)"
fill="#000000" stroke="none">
<path d="M0 761 c0 -111 2 -130 17 -135 9 -4 173 -97 365 -208 l348 -201 -37
-23 c-21 -13 -43 -24 -48 -24 -6 0 -131 70 -279 155 -148 85 -270 155 -272
155 -2 0 -4 -68 -4 -151 l0 -151 -45 26 -45 27 0 -116 0 -115 390 0 390 0 0
445 0 445 -390 0 -390 0 0 -129z m438 85 c52 -29 52 -30 52 -78 0 -26 -3 -48
-6 -48 -14 0 -184 103 -184 111 0 9 71 50 80 46 3 -1 29 -15 58 -31z m-48
-125 l135 -79 5 74 5 74 43 -26 42 -25 0 -125 c0 -68 -2 -124 -4 -124 -4 0
-80 43 -390 223 l-69 40 39 23 c21 13 44 24 49 23 6 0 71 -35 145 -78z m2
-155 l268 -155 0 150 c0 82 3 149 6 149 4 0 24 -10 45 -22 l39 -22 0 -203 0
-204 -22 12 c-55 29 -684 392 -692 400 -10 8 50 49 73 49 8 0 135 -69 283
-154z m-19 -296 c119 -69 217 -127 217 -130 0 -3 -18 -15 -40 -28 l-40 -23
-140 81 c-76 44 -142 80 -145 80 -3 0 -5 -31 -5 -70 0 -38 -3 -70 -6 -70 -4 0
-24 10 -45 22 l-39 22 0 124 c0 98 3 123 13 120 8 -2 111 -59 230 -128z m-20
-142 c119 -69 115 -62 67 -91 l-42 -25 -54 31 c-53 31 -54 32 -54 79 0 26 3
48 6 48 3 0 38 -19 77 -42z"/>
</g>
</svg>
