<svg width="308" height="357" viewBox="0 0 308 357" fill="none" xmlns="http://www.w3.org/2000/svg">
<g style="mix-blend-mode:screen">
<path fill-rule="evenodd" clip-rule="evenodd" d="M4 268.447L13.3867 274.089L18.48 277.151L36.96 287.848V266.042V246.705V246.408V245.226V241.589V225.722C36.96 219.748 36.9851 213.963 37.031 208.484C37.045 206.815 37.0609 205.175 37.0786 203.566C37.2668 186.451 37.6587 172.917 38.1047 166.935C38.2659 164.772 38.4343 163.596 38.6027 163.596C38.9538 163.596 48.3127 168.861 63.6627 177.621L64.5056 178.102C67.2969 179.695 70.2792 181.4 73.4349 183.206L75.4923 184.384L77.393 185.473C94.2283 195.115 115.407 207.291 138.61 220.64L138.623 220.647C142.464 222.857 146.362 225.1 150.304 227.368C154.353 229.698 158.361 232.001 162.315 234.269C217.706 266.049 262.58 291.14 264.88 291.14C266.398 291.14 271.733 288.665 277.897 285.214C278.357 284.956 278.822 284.693 279.291 284.424L279.499 284.305L279.731 284.171L279.933 284.055C280.029 284 280.124 283.944 280.219 283.889L280.32 283.831C280.587 283.675 280.855 283.519 281.123 283.361C282.275 282.683 283.437 281.981 284.592 281.265L297.923 272.963L299.787 271.802L298.852 271.262L290.169 266.237L289.938 266.104L280.32 260.538L269.924 254.522L268 253.409L266.932 252.791L266.817 252.724L264.88 251.603L264.093 251.148L260.513 249.076L168.462 195.81L156.875 189.105C112.159 163.206 71.1414 139.688 43.3346 123.88C22.1093 111.814 8.58128 104.24 6.98133 103.527C5.80264 103.134 4.81941 102.529 4 101.489V268.447ZM4.95911e-05 51H0.00129016C0.000587815 50.2101 0.000183012 49.4082 4.95911e-05 48.5941V51ZM29.9292 70.4292C29.7372 70.5392 29.5455 70.6502 29.354 70.762C29.1144 70.902 28.8753 71.0433 28.6369 71.1858C27.081 72.1159 25.556 73.0973 24.1157 74.0926C23.6609 74.4069 23.2146 74.7225 22.7785 75.0384C20.9331 76.3749 19.2695 77.715 17.916 78.97C14.9912 81.682 13.5149 83.9958 14.784 85.013C14.8343 85.0634 14.9444 85.148 15.1126 85.2659C17.197 86.7272 28.1991 93.2945 44.7627 103.029C45.704 103.582 46.6633 104.146 47.6399 104.719L47.959 104.907L49.0825 105.566C73.1589 119.693 107.247 139.517 142.578 159.973L142.675 160.029C150.394 164.499 158.173 168.998 165.919 173.475L165.925 173.479C197.482 191.716 228.499 209.574 252.791 223.479C258.22 226.587 263.312 229.496 268 232.169C271.707 234.283 275.16 236.247 278.326 238.044L279.002 238.428L280.32 239.175C289.596 244.433 296.133 248.089 298.965 249.585L308 254.522V233.052V232.482V230.341V208.876V191.985V177.996V170.591V130.27V89.0903V87.0701L294.613 79.5046L291.984 78.0186C287.755 75.5976 283.625 73.3745 280.32 71.7374C276.885 70.0358 274.341 68.9672 273.504 68.9672C272.886 68.9672 272.268 75.9012 271.806 87.0701C271.556 93.1066 271.351 100.38 271.217 108.464L271.209 108.899C271.192 109.983 271.175 111.08 271.16 112.191C271.083 117.911 271.04 123.983 271.04 130.27V145.755V170.591V187.836V191.985L268 190.223L252.971 181.515L231.04 168.808L160.981 128.213C132.405 111.771 105.735 96.7831 85.1545 85.5173L84.4918 85.1547C84.0334 84.904 83.578 84.6551 83.1259 84.4082L83.114 84.4017C70.846 77.702 60.8825 72.4071 54.1648 69.0271C52.7938 68.3373 51.5581 67.7272 50.4655 67.2013C47.2871 65.6712 45.3205 64.8529 44.7627 64.8529C43.4517 64.8529 41.8481 65.1778 40.0692 65.7463C37.0085 66.7244 33.429 68.4237 29.9292 70.4292ZM144.985 34.6969L145.322 34.9097C147.999 36.5996 150.803 38.3456 153.667 40.1059C154.467 40.5976 155.272 41.0904 156.08 41.5835C156.647 41.9294 157.215 42.2755 157.784 42.6214C158.929 43.3167 160.078 44.0112 161.227 44.7022L161.745 45.0138L161.896 45.1042L161.93 45.1248L162.074 45.2114C162.6 45.5269 163.126 45.8416 163.651 46.1552L164.122 46.4368C165.749 47.4076 167.369 48.3671 168.97 49.308L169.016 49.3352C172.241 51.2308 175.387 53.0506 178.356 54.7345C188.738 60.6241 196.946 64.8529 198.763 64.8529C199.995 64.8529 201.227 55.8014 201.227 45.1042C201.227 44.0671 201.227 43.0833 201.224 42.1484C201.214 39.3331 201.177 36.9609 201.027 34.9097L201.018 34.7924C200.752 31.2703 200.145 28.6992 198.763 26.45C198.429 25.9071 198.05 25.383 197.62 24.8687C194.832 21.536 189.888 18.6197 181.122 13.712C180.714 13.4833 180.297 13.2503 179.872 13.0127C171.951 8.63415 164.574 4.61965 160.16 2.30095C159.815 2.11998 159.489 1.94936 159.182 1.78969C157.507 0.919362 156.402 0.374715 156.053 0.258291C154.314 -0.516307 146.933 2.81072 139.608 6.93599C131.369 11.5752 123.2 17.2241 123.2 19.1841C123.2 20.2864 131.03 25.7721 141.661 32.5818C142.628 33.2013 143.618 33.8318 144.628 34.4709L144.985 34.6969ZM254.613 57.0357L241.184 49.027L239.397 47.9618L237.365 46.7499L234.649 45.1042L219.707 36.0528L219.096 45.1042L218.608 52.3405L218.292 57.0357L217.653 66.4986L216.683 80.8925L216.676 80.984L215.875 92.866L215.6 96.9444L214.613 96.366L198.763 87.0732L177.034 74.3342L160.16 64.4415C140.113 52.7706 121.674 42.5322 110.738 36.9153L110.716 36.9039C109.256 36.154 107.93 35.4868 106.752 34.9097C103.389 33.2622 101.234 32.3499 100.613 32.3499C99.5889 32.1446 96.7247 33.1682 93.0405 34.9097C91.3853 35.6921 89.5647 36.6194 87.671 37.6453C86.5459 38.2548 85.395 38.8991 84.2378 39.5685C82.9881 40.2914 81.7309 41.0436 80.4907 41.8128L64.4747 51.2757L92.8107 67.7329L93.4491 68.1043L97.3735 70.387L98.6857 71.1502L100.613 72.2713L100.701 72.3223L104.092 74.2942C117.753 82.2382 130.226 89.4851 141.605 96.0896L141.703 96.1461C152.008 102.127 161.415 107.581 169.994 112.549L170.042 112.576C180.232 118.476 189.254 123.69 197.225 128.286C203.548 131.931 209.21 135.187 214.27 138.089C215.538 138.816 216.769 139.521 217.963 140.205C222.941 143.055 227.278 145.527 231.04 147.66C242.783 154.318 248.926 157.671 251.512 158.907C252.342 159.303 252.806 159.482 252.971 159.482C253.494 159.482 254.018 150.114 254.329 136.072C254.37 134.216 254.407 132.279 254.44 130.27C254.497 126.871 254.541 123.268 254.57 119.516C254.582 118.042 254.591 116.546 254.598 115.03C254.601 114.367 254.604 113.7 254.606 113.03C254.611 111.525 254.613 110.002 254.613 108.464V99.5756V68.9913V57.0357ZM209.44 324.465L215.312 321.083L221.374 317.591L224.896 315.562L225.867 315.003C234.901 309.654 242.293 304.717 242.293 303.483C242.293 303.024 236.751 299.45 227.282 293.685C222.086 290.521 215.707 286.697 208.413 282.366C208.053 282.152 207.692 281.938 207.328 281.722C207.009 281.533 206.688 281.342 206.366 281.151L205.535 280.659L205.444 280.605C195.092 274.472 183.079 267.42 170.098 259.846L170.089 259.841C164.607 256.642 158.953 253.351 153.179 249.997C149.154 247.659 145.174 245.354 141.256 243.093C125.59 234.051 110.927 225.702 98.4253 218.679C96.8766 217.809 95.361 216.959 93.8808 216.131C93.442 215.885 93.0063 215.642 92.5738 215.4C86.7855 212.166 81.5642 209.276 77.0475 206.806C68.0914 201.908 61.9056 198.661 59.5628 197.649C59.1788 197.483 58.8981 197.377 58.7253 197.333C57.5163 196.97 56.5564 197.605 55.8038 199.711C54.9567 202.082 54.3721 206.316 53.9903 213.088C53.9218 214.303 53.8598 215.6 53.804 216.982C53.7901 217.328 53.7765 217.679 53.7633 218.036C53.6773 220.362 53.6075 222.918 53.5524 225.722C53.4863 229.093 53.4414 232.822 53.4152 236.937C53.4099 237.769 53.4054 238.616 53.4016 239.479C53.3915 241.773 53.3867 244.18 53.3867 246.705V248.162V251.139V259.47V287.025V287.848V295.844V297.722L69.4027 306.774C69.9068 307.063 70.4095 307.348 70.9096 307.631C72.9636 308.79 74.9731 309.891 76.8529 310.888L76.96 310.945C82.4021 313.827 86.7379 315.825 87.8827 315.825C88.3421 315.825 88.8014 313.995 89.197 310.888C89.4929 308.564 89.753 305.526 89.9507 302.006C90.0195 300.779 90.0808 299.494 90.1334 298.16C90.1391 298.015 90.1447 297.869 90.1502 297.722C90.2755 294.398 90.3467 290.783 90.3467 287.025C90.3467 283.075 90.3965 279.323 90.4899 275.913C90.5192 274.843 90.5529 273.806 90.5906 272.807C90.7922 267.472 91.111 263.219 91.5183 260.714C91.7786 259.113 92.075 258.225 92.4 258.225C92.5138 258.225 92.8484 258.352 93.3867 258.595C95.9727 259.766 103.26 263.646 113.344 269.226C117.606 271.584 122.367 274.246 127.485 277.136C128.455 277.684 129.437 278.239 130.431 278.803C131.913 279.642 133.421 280.499 134.953 281.371C140.377 284.461 146.089 287.742 151.947 291.14L154.233 292.465L154.351 292.534L203.604 321.083L207.613 323.407L209.44 324.465ZM114.488 291.532C113.896 291.275 113.506 291.14 113.344 291.14C113.023 291.14 112.703 291.753 112.404 292.848C111.554 295.962 110.88 302.975 110.88 310.888C110.88 311.874 110.881 312.811 110.886 313.703C110.902 316.588 110.958 319.001 111.148 321.083C111.443 324.304 112.059 326.732 113.344 328.887C113.801 329.654 114.343 330.386 114.985 331.107C116.62 332.941 118.904 334.703 122.096 336.778C123.424 337.641 124.908 338.558 126.568 339.557L126.797 339.695C128.658 340.812 130.735 342.031 133.056 343.391L149.691 352.959L155.232 356.146L160.16 353.207L169.575 347.592L172.48 345.86C173.717 345.111 174.883 344.421 175.97 343.777L175.971 343.777L175.977 343.773L175.981 343.771C181.623 340.43 185.127 338.354 185.371 335.948C185.636 333.337 182.058 330.336 173.201 324.903C171.315 323.746 169.19 322.48 166.811 321.083C163.483 319.128 159.659 316.92 155.302 314.402L155.3 314.402L153.059 313.107L152.89 313.009L152.438 312.748L151.373 312.133L151.153 312.005L151.119 311.985L150.881 311.848L150.357 311.545L149.223 310.888L148.933 310.721L148.214 310.304C147.157 309.692 146.074 309.064 144.965 308.42C144.207 307.972 143.452 307.527 142.703 307.087L142.698 307.085C138.239 304.468 133.954 302.005 130.098 299.833C122.716 295.674 116.911 292.585 114.488 291.532Z" fill="white"/>
</g>
</svg>
